<?xml version="1.0" encoding="utf-8"?>
<!-- Generator: Adobe Illustrator 25.2.3, SVG Export Plug-In . SVG Version: 6.00 Build 0)  -->
<svg version="1.1" id="Layer_1" xmlns="http://www.w3.org/2000/svg" xmlns:xlink="http://www.w3.org/1999/xlink" x="0px" y="0px"
	 viewBox="0 0 254.5 90.8" style="enable-background:new 0 0 254.5 90.8;" xml:space="preserve">
<style type="text/css">
	.st0{fill:#FFFFFF;}
	.st1{fill-rule:evenodd;clip-rule:evenodd;fill:#FFFFFF;}
</style>
<g>
	<g>
		<g>
			<path class="st0" d="M22.9,82.3c0,1.2-0.2,2-0.5,2.4c-0.3,0.4-0.9,0.7-1.8,0.7h-3.7c-0.9,0-1.5-0.2-1.8-0.7
				c-0.3-0.5-0.4-1.2-0.4-2.3V66.2c0-0.6-0.1-0.9-0.2-1.2c-0.1-0.2-0.4-0.3-0.9-0.3H9.3c-0.5,0-0.8,0.1-0.9,0.3
				c-0.1,0.2-0.2,0.6-0.2,1.2v16.2c0,1.1-0.1,1.8-0.4,2.3c-0.3,0.5-0.9,0.7-1.8,0.7H2.3c-0.9,0-1.5-0.2-1.8-0.7
				C0.2,84.3,0,83.5,0,82.3V41.7c0-1.1,0.2-1.9,0.5-2.4c0.3-0.4,1-0.7,1.8-0.7h3.8c1.4,0,2.1,1,2.1,2.9v13.5c0,0.9,0.4,1.3,1.1,1.3
				h4.3c0.7,0,1-0.4,1-1.3V41.6c0-2,0.7-2.9,2.1-2.9h3.8c0.8,0,1.4,0.2,1.8,0.7c0.3,0.5,0.5,1.2,0.5,2.4V82.3z"/>
			<path class="st0" d="M45.6,82.4c0,2-0.8,3-2.4,3H28.9c-0.9,0-1.6-0.2-1.9-0.6c-0.3-0.4-0.5-1.2-0.5-2.5V41.7c0-1.2,0.2-2,0.5-2.4
				c0.4-0.4,1-0.7,1.9-0.7h13.9c0.9,0,1.5,0.2,1.8,0.5c0.3,0.4,0.5,1.1,0.5,2.2V44c0,1.2-0.2,2-0.5,2.4c-0.3,0.4-0.9,0.6-1.8,0.6
				h-6.9c-0.5,0-0.9,0.1-1,0.3c-0.2,0.2-0.2,0.6-0.2,1.3V55c0,0.7,0.1,1.1,0.2,1.2c0.1,0.2,0.5,0.2,1.1,0.2h3.5
				c0.8,0,1.3,0.2,1.6,0.5c0.3,0.3,0.4,1,0.4,1.9v3.6c0,0.9-0.2,1.5-0.5,1.8c-0.3,0.3-0.8,0.5-1.6,0.5h-3.5c-0.5,0-0.9,0.1-1,0.2
				c-0.2,0.1-0.2,0.4-0.2,0.8v9.8c0,0.6,0.1,1,0.3,1.2c0.2,0.2,0.6,0.3,1.2,0.3h6.9c0.9,0,1.6,0.2,2,0.7c0.4,0.4,0.6,1.2,0.6,2.3
				V82.4z"/>
			<path class="st0" d="M61.5,73.4c0,3.4-0.5,6.1-1.6,8.1c-1.4,2.6-3.8,3.9-7.1,3.9h-3.4c-1,0-1.7-0.2-2-0.6
				c-0.3-0.4-0.5-1.2-0.5-2.3V80c0-1.2,0.2-1.9,0.5-2.3c0.3-0.4,0.9-0.5,1.8-0.5H51c0.8,0,1.4-0.2,1.8-0.6c0.3-0.4,0.5-1.2,0.5-2.5
				V41.6c0-1.2,0.1-2,0.4-2.4c0.3-0.4,1-0.6,1.9-0.6h3.5c1,0,1.6,0.2,1.9,0.6c0.3,0.4,0.5,1.1,0.5,2.3V73.4z"/>
			<path class="st0" d="M71.9,82.5c0,0.9-0.3,2-0.8,3.4l-1.3,3.6c-0.3,0.9-0.8,1.4-1.5,1.4h-3.4c-0.8,0-1-0.4-0.7-1.2l1.3-3
				c0.3-0.8,0.2-1.2-0.4-1.2h-0.4c-0.7,0-1.1-0.6-1.1-1.8v-3.4c0-1.2,0.1-2,0.4-2.5c0.3-0.4,0.9-0.7,1.8-0.7h3.9
				c0.9,0,1.5,0.2,1.8,0.7c0.3,0.4,0.4,1.3,0.4,2.5V82.5z"/>
			<path class="st0" d="M104.9,39.5c0,0.3-0.1,0.6-0.2,0.8l-6.9,13.5c-0.2,0.4-0.4,0.9-0.4,1.3c0,0.3,0,0.8,0.2,1.5l7.1,26.7
				c0.2,0.9,0.2,1.5,0.1,1.8c-0.1,0.2-0.5,0.4-1.2,0.4h-5.7c-0.6,0-1-0.1-1.3-0.4c-0.3-0.3-0.5-0.8-0.7-1.6l-3.3-15.6
				c-0.3-1.4-0.6-2.2-0.8-2.2c-0.3,0-0.5,0.1-0.7,0.4c-0.2,0.3-0.7,1.1-1.4,2.5c-0.4,0.8-0.6,2.1-0.6,3.9v10c0,1.2-0.2,2-0.5,2.4
				c-0.3,0.4-0.9,0.6-1.8,0.6h-3.5c-1,0-1.6-0.2-2-0.6c-0.3-0.4-0.5-1.2-0.5-2.5V41.8c0-1.2,0.2-2,0.5-2.5c0.3-0.4,0.9-0.7,1.8-0.7
				h3.8c0.8,0,1.4,0.2,1.7,0.7c0.3,0.5,0.5,1.3,0.5,2.5v10.4c0,0.5,0.1,0.7,0.3,0.8c0.1,0,0.3,0,0.4-0.1c0.1-0.1,0.2-0.3,0.4-0.7
				l5.2-10.9c0.5-1.1,0.9-1.8,1.2-2.2c0.3-0.3,0.8-0.5,1.5-0.5h6.2C104.6,38.7,104.9,38.9,104.9,39.5z"/>
			<path class="st0" d="M124.4,82.4c0,1.1-0.2,1.8-0.6,2.3c-0.4,0.5-1.1,0.7-2,0.7h-12.6c-0.9,0-1.6-0.2-1.9-0.6
				c-0.3-0.4-0.5-1.2-0.5-2.5V41.7c0-1.1,0.2-1.8,0.5-2.3c0.3-0.5,0.9-0.7,1.8-0.7h3.7c0.9,0,1.5,0.2,1.8,0.6
				c0.3,0.4,0.5,1.2,0.5,2.4v34c0,1,0.4,1.5,1.1,1.5h5.7c0.9,0,1.5,0.2,1.9,0.6c0.4,0.4,0.5,1.2,0.5,2.3V82.4z"/>
			<path class="st0" d="M151.3,84.4c0.1,0.7-0.3,1-1,1h-6.7c-0.7,0-1.1-0.4-1.2-1.3l-1.3-9.9c-0.1-0.8-0.5-1.1-1.2-1.1h-2.9
				c-0.7,0-1.1,0.4-1.2,1.1l-1.1,10c0,0.5-0.2,0.8-0.3,0.9c-0.2,0.1-0.5,0.2-0.9,0.2h-6.5c-0.4,0-0.7-0.1-0.9-0.3
				c-0.2-0.2-0.3-0.4-0.2-0.8l5.7-43.1c0.1-1,0.4-1.7,0.8-2.1c0.4-0.4,1.1-0.6,2.1-0.6h8.1c0.8,0,1.5,0.2,1.9,0.6
				c0.4,0.4,0.7,1.1,0.8,2.1L151.3,84.4z M140.2,64.1L138.9,48c-0.1-0.7-0.2-1-0.6-1c-0.3,0-0.5,0.4-0.6,1.1l-1.2,16.1
				c0,0.2,0,0.4,0.2,0.6c0.2,0.1,0.4,0.2,0.7,0.2h1.8c0.3,0,0.6-0.1,0.8-0.2C140.2,64.5,140.3,64.3,140.2,64.1z"/>
			<path class="st0" d="M173,77.9c0,5-2.5,7.5-7.5,7.5h-10.4c-0.9,0-1.6-0.2-1.9-0.6c-0.3-0.4-0.5-1.2-0.5-2.3v-2.5
				c0-1.2,0.1-2,0.4-2.4c0.3-0.4,0.9-0.6,1.8-0.6h7.2c0.9,0,1.5-0.4,1.8-1.2c0.3-0.8,0.1-1.5-0.3-2.3l-7.9-14.9
				c-2.1-4.1-3.2-7.9-3.2-11.6c0-3.1,0.7-5.3,2.1-6.6c1.4-1.3,3.6-1.9,6.6-1.9h8c1.3,0,2,0.8,2,2.5v3.1c0,1-0.2,1.7-0.5,2.1
				c-0.3,0.4-0.9,0.6-1.7,0.6h-6.2c-1.1,0-1.8,0.4-2.1,1.3c-0.3,0.9-0.1,1.8,0.5,2.8l7.5,13.8c1.8,3.3,2.9,5.8,3.5,7.5
				C172.8,74.2,173,76,173,77.9z"/>
			<path class="st0" d="M194.2,77.9c0,5-2.5,7.5-7.5,7.5h-10.4c-0.9,0-1.6-0.2-1.9-0.6c-0.3-0.4-0.5-1.2-0.5-2.3v-2.5
				c0-1.2,0.1-2,0.4-2.4c0.3-0.4,0.9-0.6,1.8-0.6h7.2c0.9,0,1.5-0.4,1.8-1.2c0.3-0.8,0.1-1.5-0.3-2.3L177,58.8
				c-2.2-4.1-3.2-7.9-3.2-11.6c0-3.1,0.7-5.3,2.1-6.6c1.4-1.3,3.6-1.9,6.6-1.9h8c1.3,0,2,0.8,2,2.5v3.1c0,1-0.2,1.7-0.5,2.1
				c-0.3,0.4-0.9,0.6-1.7,0.6H184c-1.1,0-1.8,0.4-2.1,1.3c-0.3,0.9-0.1,1.8,0.5,2.8l7.5,13.8c1.8,3.3,2.9,5.8,3.5,7.5
				C194,74.2,194.2,76,194.2,77.9z"/>
		</g>
		<path class="st1" d="M254.4,66.4c-0.1-1.9-1.6-3.2-3.6-3.3c-1,0-1.9,0-2.9,0c0,0-0.1-37.4,0-58.9c0-2.7-1.8-4.2-4.2-4.2
			c-32,0.1-78.7-0.1-79.7,0c-2,0.2-3.3,1.6-3.3,3.6c0,13.1,0,18.8,0,31.9h7.1c0-17.2,0-27.5,0-28.5h73.2c0,0,0,40.6,0,56l-48.2,0
			c1.2,2.3,2.3,4.6,3.2,7.1h51.4c-0.4,4.4-4.2,8-8.5,8.2c-1.1,0-28.2,0-40.6,0c0.5,2.3,0.8,4.7,1,7c13.1,0,26.1,0,39.2,0
			c5.5,0,9.9-2.5,13.1-7C254.1,74.8,254.7,70.7,254.4,66.4z"/>
		<path class="st1" d="M201.3,49c-2.8,1.7-5.1,0.5-5.1-2.8V26c0-3.3,2.3-4.6,5.1-2.8l15.6,9.7c2.8,1.7,2.8,4.6,0,6.3L201.3,49z"/>
	</g>
</g>
</svg>
